CooperHewitt-Book-Cyr.ufo
<glyph name="plus" format="2">
	<advance width="600"/>
	<unicode hex="002B"/>
	<note>
		plus
  </note>
	<outline>
		<contour>
			<point x="333" y="642" type="line"/>
			<point x="267" y="642" type="line"/>
			<point x="267" y="423" type="line"/>
			<point x="48" y="423" type="line"/>
			<point x="48" y="357" type="line"/>
			<point x="267" y="357" type="line"/>
			<point x="267" y="138" type="line"/>
			<point x="333" y="138" type="line"/>
			<point x="333" y="357" type="line"/>
			<point x="552" y="357" type="line"/>
			<point x="552" y="423" type="line"/>
			<point x="333" y="423" type="line"/>
		</contour>
	</outline>
</glyph>
<glyph name="one" format="2">
	<advance width="600"/>
	<unicode hex="0031"/>
	<note>
		one
  </note>
	<outline>
		<contour>
			<point x="71" y="0" type="line"/>
			<point x="549" y="0" type="line"/>
			<point x="549" y="65" type="line"/>
			<point x="346" y="65" type="line"/>
			<point x="346" y="784" type="line"/>
			<point x="300" y="784" type="line"/>
			<point x="55" y="618" type="line"/>
			<point x="91" y="563" type="line"/>
			<point x="275" y="688" type="line"/>
			<point x="275" y="65" type="line"/>
			<point x="71" y="65" type="line"/>
		</contour>
	</outline>
</glyph>
<glyph name="greater" format="2">
	<advance width="600"/>
	<unicode hex="003E"/>
	<note>
		greater
  </note>
	<outline>
		<contour>
			<point x="552" y="355" type="line"/>
			<point x="552" y="425" type="line"/>
			<point x="48" y="660" type="line"/>
			<point x="48" y="588" type="line"/>
			<point x="481" y="390" type="line"/>
			<point x="48" y="192" type="line"/>
			<point x="48" y="120" type="line"/>
		</contour>
	</outline>
</glyph>
<glyph name="L" format="2">
	<advance width="491"/>
	<unicode hex="004C"/>
	<note>
		L
  </note>
	<outline>
		<contour>
			<point x="74" y="0" type="line"/>
			<point x="476" y="0" type="line"/>
			<point x="476" y="65" type="line"/>
			<point x="146" y="65" type="line"/>
			<point x="146" y="780" type="line"/>
			<point x="74" y="780" type="line"/>
		</contour>
	</outline>
</glyph>
<glyph name="X" format="2">
	<advance width="613"/>
	<unicode hex="0058"/>
	<note>
		X
  </note>
	<outline>
		<contour>
			<point x="257" y="397" type="line"/>
			<point x="31" y="0" type="line"/>
			<point x="113" y="0" type="line"/>
			<point x="306" y="343" type="line"/>
			<point x="500" y="0" type="line"/>
			<point x="582" y="0" type="line"/>
			<point x="355" y="397" type="line"/>
			<point x="582" y="780" type="line"/>
			<point x="497" y="780" type="line"/>
			<point x="306" y="452" type="line"/>
			<point x="115" y="780" type="line"/>
			<point x="31" y="780" type="line"/>
		</contour>
		<contour>
			<point x="571" y="-150" type="move"/>
		</contour>
	</outline>
</glyph>
<glyph name="Z" format="2">
	<advance width="563"/>
	<unicode hex="005A"/>
	<note>
		Z
  </note>
	<outline>
		<contour>
			<point x="424" y="718" type="line"/>
			<point x="40" y="50" type="line"/>
			<point x="40" y="0" type="line"/>
			<point x="523" y="0" type="line"/>
			<point x="523" y="65" type="line"/>
			<point x="255" y="65" type="line"/>
			<point x="129" y="62" type="line"/>
			<point x="513" y="730" type="line"/>
			<point x="513" y="780" type="line"/>
			<point x="50" y="780" type="line"/>
			<point x="50" y="715" type="line"/>
			<point x="298" y="715" type="line"/>
		</contour>
	</outline>
</glyph>
<glyph name="backslash" format="2">
	<advance width="329"/>
	<unicode hex="005C"/>
	<note>
		backslash
  </note>
	<outline>
		<contour>
			<point x="15" y="840" type="line"/>
			<point x="245" y="-120" type="line"/>
			<point x="315" y="-120" type="line"/>
			<point x="85" y="840" type="line"/>
		</contour>
	</outline>
</glyph>
<glyph name="asciicircum" format="2">
	<advance width="600"/>
	<unicode hex="005E"/>
	<note>
		asciicircum
  </note>
	<outline>
		<contour>
			<point x="570" y="276" type="line"/>
			<point x="335" y="780" type="line"/>
			<point x="265" y="780" type="line"/>
			<point x="30" y="276" type="line"/>
			<point x="102" y="276" type="line"/>
			<point x="300" y="709" type="line"/>
			<point x="498" y="276" type="line"/>
		</contour>
	</outline>
</glyph>
<glyph name="underscore" format="2">
	<advance width="320"/>
	<unicode hex="005F"/>
	<note>
		underscore
  </note>
	<outline>
		<contour>
			<point x="48" y="-71" type="line"/>
			<point x="48" y="-135" type="line"/>
			<point x="272" y="-135" type="line"/>
			<point x="272" y="-71" type="line"/>
		</contour>
	</outline>
</glyph>
<glyph name="grave" format="2">
	<advance width="500"/>
	<unicode hex="0060"/>
	<note>
		grave
  </note>
	<outline>
		<contour>
			<point x="196" y="780" type="line"/>
			<point x="120" y="780" type="line"/>
			<point x="214" y="614" type="line"/>
			<point x="286" y="614" type="line"/>
		</contour>
	</outline>
</glyph>
<glyph name="l" format="2">
	<advance width="216"/>
	<unicode hex="006C"/>
	<note>
		l
  </note>
	<outline>
		<contour>
			<point x="73" y="800" type="line"/>
			<point x="73" y="0" type="line"/>
			<point x="143" y="0" type="line"/>
			<point x="143" y="800" type="line"/>
		</contour>
	</outline>
</glyph>
<glyph name="v" format="2">
	<advance width="512"/>
	<unicode hex="0076"/>
	<note>
		v
  </note>
	<outline>
		<contour>
			<point x="25" y="530" type="line"/>
			<point x="210" y="0" type="line"/>
			<point x="302" y="0" type="line"/>
			<point x="488" y="530" type="line"/>
			<point x="413" y="530" type="line"/>
			<point x="256" y="66" type="line"/>
			<point x="100" y="530" type="line"/>
		</contour>
	</outline>
</glyph>
<glyph name="bar" format="2">
	<advance width="201"/>
	<unicode hex="007C"/>
	<note>
		bar
  </note>
	<outline>
		<contour>
			<point x="66" y="840" type="line"/>
			<point x="66" y="-120" type="line"/>
			<point x="136" y="-120" type="line"/>
			<point x="136" y="840" type="line"/>
		</contour>
	</outline>
</glyph>
<glyph name="macron" format="2">
	<advance width="500"/>
	<unicode hex="00AF"/>
	<note>
		macron
  </note>
	<outline>
		<contour>
			<point x="133" y="730" type="line"/>
			<point x="133" y="664" type="line"/>
			<point x="367" y="664" type="line"/>
			<point x="367" y="730" type="line"/>
		</contour>
	</outline>
</glyph>
<glyph name="acute" format="2">
	<advance width="500"/>
	<unicode hex="00B4"/>
	<note>
		acute
  </note>
	<outline>
		<contour>
			<point x="380" y="780" type="line"/>
			<point x="304" y="780" type="line"/>
			<point x="214" y="614" type="line"/>
			<point x="286" y="614" type="line"/>
		</contour>
	</outline>
</glyph>
<glyph name="periodcentered" format="2">
	<advance width="217"/>
	<unicode hex="00B7"/>
	<note>
		periodcentered
  </note>
	<outline>
		<contour>
			<point x="152" y="306" type="line"/>
			<point x="152" y="394" type="line"/>
			<point x="65" y="394" type="line"/>
			<point x="65" y="306" type="line"/>
		</contour>
	</outline>
</glyph>
<glyph name="Iacute" format="2">
	<advance width="229"/>
	<unicode hex="00CD"/>
	<note>
		Iacute
  </note>
	<outline>
		<contour>
			<point x="151" y="0" type="line"/>
			<point x="151" y="780" type="line"/>
			<point x="79" y="780" type="line"/>
			<point x="79" y="0" type="line"/>
		</contour>
		<contour>
			<point x="213" y="950" type="line"/>
			<point x="139" y="950" type="line"/>
			<point x="79" y="840" type="line"/>
			<point x="151" y="840" type="line"/>
		</contour>
	</outline>
</glyph>
<glyph name="iacute" format="2">
	<advance width="217"/>
	<unicode hex="00ED"/>
	<note>
		iacute
  </note>
	<outline>
		<contour>
			<point x="73" y="530" type="line"/>
			<point x="73" y="0" type="line"/>
			<point x="143" y="0" type="line"/>
			<point x="143" y="530" type="line"/>
		</contour>
		<contour>
			<point x="238" y="780" type="line"/>
			<point x="162" y="780" type="line"/>
			<point x="72" y="614" type="line"/>
			<point x="144" y="614" type="line"/>
		</contour>
	</outline>
</glyph>
<glyph name="Imacron" format="2">
	<advance width="229"/>
	<unicode hex="012A"/>
	<note>
		Imacron
  </note>
	<outline>
		<contour>
			<point x="151" y="0" type="line"/>
			<point x="151" y="780" type="line"/>
			<point x="79" y="780" type="line"/>
			<point x="79" y="0" type="line"/>
		</contour>
		<contour>
			<point x="2" y="922" type="line"/>
			<point x="2" y="868" type="line"/>
			<point x="228" y="868" type="line"/>
			<point x="228" y="922" type="line"/>
		</contour>
	</outline>
</glyph>
<glyph name="lacute" format="2">
	<advance width="217"/>
	<unicode hex="013A"/>
	<note>
		lacute
  </note>
	<outline>
		<contour>
			<point x="73" y="800" type="line"/>
			<point x="73" y="0" type="line"/>
			<point x="143" y="0" type="line"/>
			<point x="143" y="800" type="line"/>
		</contour>
		<contour>
			<point x="206" y="950" type="line"/>
			<point x="132" y="950" type="line"/>
			<point x="72" y="840" type="line"/>
			<point x="144" y="840" type="line"/>
		</contour>
	</outline>
</glyph>
<glyph name="Zacute" format="2">
	<advance width="563"/>
	<unicode hex="0179"/>
	<note>
		Zacute
  </note>
	<outline>
		<contour>
			<point x="377" y="950" type="line"/>
			<point x="303" y="950" type="line"/>
			<point x="243" y="840" type="line"/>
			<point x="315" y="840" type="line"/>
		</contour>
		<contour>
			<point x="424" y="718" type="line"/>
			<point x="40" y="50" type="line"/>
			<point x="40" y="0" type="line"/>
			<point x="523" y="0" type="line"/>
			<point x="523" y="65" type="line"/>
			<point x="255" y="65" type="line"/>
			<point x="129" y="62" type="line"/>
			<point x="513" y="730" type="line"/>
			<point x="513" y="780" type="line"/>
			<point x="50" y="780" type="line"/>
			<point x="50" y="715" type="line"/>
			<point x="298" y="715" type="line"/>
		</contour>
	</outline>
</glyph>
<glyph name="hungarumlaut" format="2">
	<advance width="500"/>
	<unicode hex="02DD"/>
	<note>
		hungarumlaut
  </note>
	<outline>
		<contour>
			<point x="438" y="780" type="line"/>
			<point x="370" y="780" type="line"/>
			<point x="280" y="614" type="line"/>
			<point x="343" y="614" type="line"/>
		</contour>
		<contour>
			<point x="308" y="780" type="line"/>
			<point x="241" y="780" type="line"/>
			<point x="157" y="614" type="line"/>
			<point x="220" y="614" type="line"/>
		</contour>
	</outline>
</glyph>
<glyph name="figuredash" format="2">
	<advance width="600"/>
	<unicode hex="2012"/>
	<note>
		figuredash
  </note>
	<outline>
		<contour>
			<point x="40" y="382" type="line"/>
			<point x="40" y="318" type="line"/>
			<point x="560" y="318" type="line"/>
			<point x="560" y="382" type="line"/>
		</contour>
	</outline>
</glyph>
<glyph name="endash" format="2">
	<advance width="500"/>
	<unicode hex="2013"/>
	<note>
		endash
  </note>
	<outline>
		<contour>
			<point x="40" y="382" type="line"/>
			<point x="40" y="318" type="line"/>
			<point x="460" y="318" type="line"/>
			<point x="460" y="382" type="line"/>
		</contour>
	</outline>
</glyph>
<glyph name="emdash" format="2">
	<advance width="1000"/>
	<unicode hex="2014"/>
	<note>
		emdash
  </note>
	<outline>
		<contour>
			<point x="40" y="382" type="line"/>
			<point x="40" y="318" type="line"/>
			<point x="960" y="318" type="line"/>
			<point x="960" y="382" type="line"/>
		</contour>
	</outline>
</glyph>
<glyph name="quoteright" format="2">
	<advance width="216"/>
	<unicode hex="2019"/>
	<note>
		quoteright
  </note>
	<outline>
		<contour>
			<point x="153" y="708" type="curve" smooth="yes"/>
			<point x="153" y="780" type="line"/>
			<point x="63" y="780" type="line"/>
			<point x="63" y="690" type="line"/>
			<point x="110" y="690" type="line"/>
			<point x="106" y="633"/>
			<point x="81" y="614"/>
			<point x="40" y="614" type="curve"/>
			<point x="40" y="572" type="line"/>
			<point x="114" y="572"/>
			<point x="153" y="617"/>
		</contour>
	</outline>
</glyph>
<glyph name="quotesinglbase" format="2">
	<advance width="216"/>
	<unicode hex="201A"/>
	<note>
		quotesinglbase
  </note>
	<outline>
		<contour>
			<point x="153" y="18" type="curve" smooth="yes"/>
			<point x="153" y="90" type="line"/>
			<point x="63" y="90" type="line"/>
			<point x="63" y="0" type="line"/>
			<point x="110" y="0" type="line"/>
			<point x="106" y="-57"/>
			<point x="81" y="-76"/>
			<point x="40" y="-76" type="curve"/>
			<point x="40" y="-118" type="line"/>
			<point x="114" y="-118"/>
			<point x="153" y="-73"/>
		</contour>
	</outline>
</glyph>
<glyph name="quotedblleft" format="2">
	<advance width="362"/>
	<unicode hex="201C"/>
	<note>
		quotedblleft
  </note>
	<outline>
		<contour>
			<point x="209" y="658" type="curve" smooth="yes"/>
			<point x="209" y="586" type="line"/>
			<point x="299" y="586" type="line"/>
			<point x="299" y="676" type="line"/>
			<point x="251" y="676" type="line"/>
			<point x="255" y="733"/>
			<point x="280" y="752"/>
			<point x="322" y="752" type="curve"/>
			<point x="322" y="794" type="line"/>
			<point x="248" y="794"/>
			<point x="209" y="749"/>
		</contour>
		<contour>
			<point x="63" y="658" type="curve" smooth="yes"/>
			<point x="63" y="586" type="line"/>
			<point x="153" y="586" type="line"/>
			<point x="153" y="676" type="line"/>
			<point x="105" y="676" type="line"/>
			<point x="109" y="733"/>
			<point x="134" y="752"/>
			<point x="176" y="752" type="curve"/>
			<point x="176" y="794" type="line"/>
			<point x="102" y="794"/>
			<point x="63" y="749"/>
		</contour>
	</outline>
</glyph>
<glyph name="guilsinglleft" format="2">
	<advance width="304"/>
	<unicode hex="2039"/>
	<note>
		guilsinglleft
  </note>
	<outline>
		<contour>
			<point x="254" y="454" type="line"/>
			<point x="254" y="524" type="line"/>
			<point x="50" y="371" type="line"/>
			<point x="50" y="309" type="line"/>
			<point x="254" y="156" type="line"/>
			<point x="254" y="226" type="line"/>
			<point x="105" y="340" type="line"/>
		</contour>
	</outline>
</glyph>
<glyph name="fraction" format="2">
	<advance width="200"/>
	<unicode hex="2044"/>
	<note>
		fraction
  </note>
	<outline>
		<contour>
			<point x="-220" y="0" type="line"/>
			<point x="-156" y="0" type="line"/>
			<point x="420" y="780" type="line"/>
			<point x="356" y="780" type="line"/>
		</contour>
	</outline>
</glyph>
<glyph name="uni2074" format="2">
	<advance width="300"/>
	<unicode hex="2074"/>
	<note>
		uni2074
  </note>
	<outline>
		<contour>
			<point x="173" y="390" type="line"/>
			<point x="233" y="390" type="line"/>
			<point x="233" y="483" type="line"/>
			<point x="285" y="483" type="line"/>
			<point x="285" y="536" type="line"/>
			<point x="233" y="536" type="line"/>
			<point x="233" y="780" type="line"/>
			<point x="175" y="780" type="line"/>
			<point x="14" y="524" type="line"/>
			<point x="14" y="483" type="line"/>
			<point x="173" y="483" type="line"/>
		</contour>
		<contour>
			<point x="80" y="535" type="line"/>
			<point x="174" y="683" type="line"/>
			<point x="173" y="644" type="line"/>
			<point x="173" y="536" type="line"/>
			<point x="114" y="536" type="line"/>
		</contour>
	</outline>
</glyph>
<glyph name="uni208A" format="2">
	<advance width="300"/>
	<unicode hex="208A"/>
	<note>
		uni208A
  </note>
	<outline>
		<contour>
			<point x="176" y="323" type="line"/>
			<point x="123" y="323" type="line"/>
			<point x="123" y="221" type="line"/>
			<point x="22" y="221" type="line"/>
			<point x="22" y="168" type="line"/>
			<point x="123" y="168" type="line"/>
			<point x="123" y="67" type="line"/>
			<point x="176" y="67" type="line"/>
			<point x="176" y="168" type="line"/>
			<point x="278" y="168" type="line"/>
			<point x="278" y="221" type="line"/>
			<point x="176" y="221" type="line"/>
		</contour>
	</outline>
</glyph>
<glyph name="uni208B" format="2">
	<advance width="300"/>
	<unicode hex="208B"/>
	<note>
		uni208B
  </note>
	<outline>
		<contour>
			<point x="22" y="221" type="line"/>
			<point x="22" y="168" type="line"/>
			<point x="278" y="168" type="line"/>
			<point x="278" y="221" type="line"/>
		</contour>
	</outline>
</glyph>
<glyph name="arrowup" format="2">
	<advance width="920"/>
	<unicode hex="2191"/>
	<note>
		arrowup
  </note>
	<outline>
		<contour>
			<point x="70" y="401" type="line"/>
			<point x="70" y="308" type="line"/>
			<point x="427" y="665" type="line"/>
			<point x="427" y="0" type="line"/>
			<point x="493" y="0" type="line"/>
			<point x="493" y="665" type="line"/>
			<point x="850" y="308" type="line"/>
			<point x="850" y="401" type="line"/>
			<point x="460" y="791" type="line"/>
		</contour>
	</outline>
</glyph>
<glyph name="equivalence" format="2">
	<advance width="600"/>
	<unicode hex="2261"/>
	<note>
		equivalence
  </note>
	<outline>
		<contour>
			<point x="48" y="627" type="line"/>
			<point x="48" y="561" type="line"/>
			<point x="552" y="561" type="line"/>
			<point x="552" y="627" type="line"/>
		</contour>
		<contour>
			<point x="48" y="219" type="line"/>
			<point x="48" y="153" type="line"/>
			<point x="552" y="153" type="line"/>
			<point x="552" y="219" type="line"/>
		</contour>
		<contour>
			<point x="48" y="423" type="line"/>
			<point x="48" y="357" type="line"/>
			<point x="552" y="357" type="line"/>
			<point x="552" y="423" type="line"/>
		</contour>
	</outline>
</glyph>
<glyph name="blacksquare" format="2">
	<advance width="920"/>
	<unicode hex="25A0"/>
	<unicode hex="E740"/>
	<note>
		blacksquare
  </note>
	<outline>
		<contour>
			<point x="70" y="0" type="line"/>
			<point x="850" y="0" type="line"/>
			<point x="850" y="780" type="line"/>
			<point x="70" y="780" type="line"/>
		</contour>
	</outline>
</glyph>
<glyph name="blacksmallsquare" format="2">
	<advance width="680"/>
	<unicode hex="25AA"/>
	<note>
		blacksmallsquare
  </note>
	<outline>
		<contour>
			<point x="70" y="0" type="line"/>
			<point x="600" y="0" type="line"/>
			<point x="600" y="530" type="line"/>
			<point x="70" y="530" type="line"/>
		</contour>
	</outline>
</glyph>
<glyph name="triagup" format="2">
	<advance width="930"/>
	<unicode hex="25B2"/>
	<note>
		triagup
  </note>
	<outline>
		<contour>
			<point x="866" y="0" type="line"/>
			<point x="500" y="791" type="line"/>
			<point x="430" y="791" type="line"/>
			<point x="64" y="0" type="line"/>
			<point x="136" y="0" type="line"/>
			<point x="465" y="716" type="line"/>
			<point x="794" y="0" type="line"/>
		</contour>
	</outline>
</glyph>
<glyph name="triagrt" format="2">
	<advance width="930"/>
	<unicode hex="25BA"/>
	<note>
		triagrt
  </note>
	<outline>
		<contour>
			<point x="871" y="355" type="line"/>
			<point x="871" y="425" type="line"/>
			<point x="80" y="791" type="line"/>
			<point x="80" y="719" type="line"/>
			<point x="796" y="390" type="line"/>
			<point x="80" y="61" type="line"/>
			<point x="80" y="-11" type="line"/>
		</contour>
	</outline>
</glyph>
<glyph name="blackcircle" format="2">
	<advance width="920"/>
	<unicode hex="25CF"/>
	<note>
		blackcircle
  </note>
	<outline>
		<contour>
			<point x="59" y="390" type="curve" smooth="yes"/>
			<point x="59" y="169"/>
			<point x="239" y="-11"/>
			<point x="460" y="-11" type="curve" smooth="yes"/>
			<point x="681" y="-11"/>
			<point x="861" y="169"/>
			<point x="861" y="390" type="curve" smooth="yes"/>
			<point x="861" y="611"/>
			<point x="681" y="791"/>
			<point x="460" y="791" type="curve" smooth="yes"/>
			<point x="239" y="791"/>
			<point x="59" y="611"/>
		</contour>
	</outline>
</glyph>
<glyph name="uni25E2" format="2">
	<advance width="930"/>
	<unicode hex="25E2"/>
	<note>
		uni25E2
  </note>
	<outline>
		<contour>
			<point x="826" y="-25" type="line"/>
			<point x="875" y="24" type="line"/>
			<point x="575" y="842" type="line"/>
			<point x="524" y="791" type="line"/>
			<point x="798" y="52" type="line"/>
			<point x="59" y="326" type="line"/>
			<point x="8" y="275" type="line"/>
		</contour>
	</outline>
</glyph>
<glyph name="uni25E4" format="2">
	<advance width="930"/>
	<unicode hex="25E4"/>
	<note>
		uni25E4
  </note>
	<outline>
		<contour>
			<point x="79" y="781" type="line"/>
			<point x="55" y="756" type="line"/>
			<point x="355" y="-62" type="line"/>
			<point x="406" y="-11" type="line"/>
			<point x="132" y="727" type="line"/>
			<point x="871" y="454" type="line"/>
			<point x="922" y="505" type="line"/>
			<point x="104" y="805" type="line"/>
		</contour>
	</outline>
</glyph>
<glyph name="anglebracketleft" format="2">
	<advance width="317"/>
	<unicode hex="3008"/>
	<note>
		anglebracketleft
  </note>
	<outline>
		<contour>
			<point x="119" y="360" type="line"/>
			<point x="281" y="840" type="line"/>
			<point x="208" y="840" type="line"/>
			<point x="46" y="360" type="line"/>
			<point x="208" y="-120" type="line"/>
			<point x="281" y="-120" type="line"/>
		</contour>
	</outline>
</glyph>
<glyph name="caronSlovak" format="2">
	<advance width="500"/>
	<unicode hex="E413"/>
	<note>
		caronSlovak
  </note>
	<outline>
		<contour>
			<point x="383" y="800" type="line"/>
			<point x="324" y="800" type="line"/>
			<point x="324" y="614" type="line"/>
			<point x="364" y="614" type="line"/>
		</contour>
	</outline>
</glyph>
<glyph name="dotbelow" format="2">
	<advance width="602"/>
	<unicode hex="E415"/>
	<note>
		dotbelow
  </note>
	<outline>
		<contour>
			<point x="291" y="-169" type="line"/>
			<point x="291" y="-87" type="line"/>
			<point x="209" y="-87" type="line"/>
			<point x="209" y="-169" type="line"/>
		</contour>
	</outline>
</glyph>
<glyph name="acute.cap" format="2">
	<advance width="500"/>
	<unicode hex="E422"/>
	<note>
		acute.cap
  </note>
	<outline>
		<contour>
			<point x="348" y="950" type="line"/>
			<point x="274" y="950" type="line"/>
			<point x="214" y="840" type="line"/>
			<point x="286" y="840" type="line"/>
		</contour>
	</outline>
</glyph>
<glyph name="doublegrave.cap" format="2">
	<advance width="500"/>
	<unicode hex="E42C"/>
	<note>
		doublegrave.cap
  </note>
	<outline>
		<contour>
			<point x="288" y="950" type="line"/>
			<point x="218" y="950" type="line"/>
			<point x="279" y="840" type="line"/>
			<point x="346" y="840" type="line"/>
		</contour>
		<contour>
			<point x="161" y="950" type="line"/>
			<point x="91" y="950" type="line"/>
			<point x="154" y="840" type="line"/>
			<point x="221" y="840" type="line"/>
		</contour>
	</outline>
</glyph>
<glyph name="caron.cap" format="2">
	<advance width="500"/>
	<unicode hex="E42D"/>
	<note>
		caron.cap
  </note>
	<outline>
		<contour>
			<point x="182" y="950" type="line"/>
			<point x="112" y="950" type="line"/>
			<point x="218" y="840" type="line"/>
			<point x="282" y="840" type="line"/>
			<point x="388" y="950" type="line"/>
			<point x="318" y="950" type="line"/>
			<point x="250" y="883" type="line"/>
		</contour>
	</outline>
</glyph>
<glyph name="commaaccent.cap" format="2">
	<advance width="500"/>
	<unicode hex="E42E"/>
	<note>
		commaaccent.cap
  </note>
	<outline>
		<contour>
			<point x="210" y="882" type="curve" smooth="yes"/>
			<point x="210" y="840" type="line"/>
			<point x="290" y="840" type="line"/>
			<point x="290" y="900" type="line"/>
			<point x="248" y="900" type="line"/>
			<point x="253" y="923"/>
			<point x="269" y="930"/>
			<point x="301" y="930" type="curve"/>
			<point x="301" y="962" type="line"/>
			<point x="237" y="962"/>
			<point x="210" y="927"/>
		</contour>
	</outline>
</glyph>
<glyph name="guilsinglleft.cap" format="2">
	<advance width="304"/>
	<unicode hex="E451"/>
	<note>
		guilsinglleft.cap
  </note>
	<outline>
		<contour>
			<point x="254" y="504" type="line"/>
			<point x="254" y="574" type="line"/>
			<point x="50" y="421" type="line"/>
			<point x="50" y="359" type="line"/>
			<point x="254" y="206" type="line"/>
			<point x="254" y="276" type="line"/>
			<point x="105" y="390" type="line"/>
		</contour>
	</outline>
</glyph>
<glyph name="guilsinglright.cap" format="2">
	<advance width="304"/>
	<unicode hex="E452"/>
	<note>
		guilsinglright.cap
  </note>
	<outline>
		<contour>
			<point x="50" y="574" type="line"/>
			<point x="50" y="504" type="line"/>
			<point x="199" y="390" type="line"/>
			<point x="50" y="276" type="line"/>
			<point x="50" y="206" type="line"/>
			<point x="254" y="359" type="line"/>
			<point x="254" y="421" type="line"/>
		</contour>
	</outline>
</glyph>
<glyph name="slash.cap" format="2">
	<advance width="321"/>
	<unicode hex="E461"/>
	<note>
		slash.cap
  </note>
	<outline>
		<contour>
			<point x="30" y="0" type="line"/>
			<point x="100" y="0" type="line"/>
			<point x="292" y="780" type="line"/>
			<point x="222" y="780" type="line"/>
		</contour>
	</outline>
</glyph>
<glyph name="backslash.cap" format="2">
	<advance width="321"/>
	<unicode hex="E462"/>
	<note>
		backslash.cap
  </note>
	<outline>
		<contour>
			<point x="100" y="780" type="line"/>
			<point x="30" y="780" type="line"/>
			<point x="222" y="0" type="line"/>
			<point x="292" y="0" type="line"/>
		</contour>
	</outline>
</glyph>
<glyph name="brokenbar.cap" format="2">
	<advance width="201"/>
	<unicode hex="E465"/>
	<note>
		brokenbar.cap
  </note>
	<outline>
		<contour>
			<point x="66" y="780" type="line"/>
			<point x="66" y="426" type="line"/>
			<point x="136" y="426" type="line"/>
			<point x="136" y="780" type="line"/>
		</contour>
		<contour>
			<point x="66" y="354" type="line"/>
			<point x="66" y="0" type="line"/>
			<point x="136" y="0" type="line"/>
			<point x="136" y="354" type="line"/>
		</contour>
	</outline>
</glyph>
<glyph name="bullet.cap" format="2">
	<advance width="397"/>
	<unicode hex="E466"/>
	<note>
		bullet.cap
  </note>
	<outline>
		<contour>
			<point x="329" y="259" type="line"/>
			<point x="329" y="521" type="line"/>
			<point x="68" y="521" type="line"/>
			<point x="68" y="259" type="line"/>
		</contour>
	</outline>
</glyph>
<glyph name="threequarteremdash" format="2">
	<advance width="750"/>
	<unicode hex="E472"/>
	<note>
		threequarteremdash
  </note>
	<outline>
		<contour>
			<point x="40" y="382" type="line"/>
			<point x="40" y="318" type="line"/>
			<point x="710" y="318" type="line"/>
			<point x="710" y="382" type="line"/>
		</contour>
	</outline>
</glyph>
<glyph name="periodcentered.cap" format="2">
	<advance width="217"/>
	<unicode hex="E481"/>
	<note>
		periodcentered.cap
  </note>
	<outline>
		<contour>
			<point x="152" y="346" type="line"/>
			<point x="152" y="434" type="line"/>
			<point x="65" y="434" type="line"/>
			<point x="65" y="346" type="line"/>
		</contour>
	</outline>
</glyph>
<glyph name="onethirdemdash.cap" format="2">
	<advance width="333"/>
	<unicode hex="E483"/>
	<note>
		onethirdemdash.cap
  </note>
	<outline>
		<contour>
			<point x="47" y="358" type="line"/>
			<point x="293" y="358" type="line"/>
			<point x="293" y="422" type="line"/>
			<point x="47" y="422" type="line"/>
		</contour>
	</outline>
</glyph>
<glyph name="endash.cap" format="2">
	<advance width="500"/>
	<unicode hex="E484"/>
	<note>
		endash.cap
  </note>
	<outline>
		<contour>
			<point x="40" y="422" type="line"/>
			<point x="40" y="358" type="line"/>
			<point x="460" y="358" type="line"/>
			<point x="460" y="422" type="line"/>
		</contour>
	</outline>
</glyph>
<glyph name="threequarteremdash.cap" format="2">
	<advance width="750"/>
	<unicode hex="E485"/>
	<note>
		threequarteremdash.cap
  </note>
	<outline>
		<contour>
			<point x="40" y="422" type="line"/>
			<point x="40" y="358" type="line"/>
			<point x="710" y="358" type="line"/>
			<point x="710" y="422" type="line"/>
		</contour>
	</outline>
</glyph>
<glyph name="emdash.cap" format="2">
	<advance width="1000"/>
	<unicode hex="E486"/>
	<note>
		emdash.cap
  </note>
	<outline>
		<contour>
			<point x="40" y="422" type="line"/>
			<point x="40" y="358" type="line"/>
			<point x="960" y="358" type="line"/>
			<point x="960" y="422" type="line"/>
		</contour>
	</outline>
</glyph>
<glyph name="figuredash.cap" format="2">
	<advance width="600"/>
	<unicode hex="E487"/>
	<note>
		figuredash.cap
  </note>
	<outline>
		<contour>
			<point x="40" y="422" type="line"/>
			<point x="40" y="358" type="line"/>
			<point x="560" y="358" type="line"/>
			<point x="560" y="422" type="line"/>
		</contour>
	</outline>
</glyph>
<glyph name="uni2015.cap" format="2">
	<advance width="1200"/>
	<unicode hex="E488"/>
	<note>
		uni2015.cap
  </note>
	<outline>
		<contour>
			<point x="40" y="422" type="line"/>
			<point x="40" y="358" type="line"/>
			<point x="1160" y="358" type="line"/>
			<point x="1160" y="422" type="line"/>
		</contour>
	</outline>
</glyph>
<glyph name="bracketright.cap" format="2">
	<advance width="317"/>
	<unicode hex="E494"/>
	<note>
		bracketright.cap
  </note>
	<outline>
		<contour>
			<point x="42" y="0" type="line"/>
			<point x="250" y="0" type="line"/>
			<point x="250" y="780" type="line"/>
			<point x="42" y="780" type="line"/>
			<point x="42" y="714" type="line"/>
			<point x="180" y="714" type="line"/>
			<point x="180" y="66" type="line"/>
			<point x="42" y="66" type="line"/>
		</contour>
	</outline>
</glyph>
<glyph name="anglebracketleft.cap" format="2">
	<advance width="317"/>
	<unicode hex="E497"/>
	<note>
		anglebracketleft.cap
  </note>
	<outline>
		<contour>
			<point x="121" y="390" type="line"/>
			<point x="255" y="780" type="line"/>
			<point x="182" y="780" type="line"/>
			<point x="48" y="390" type="line"/>
			<point x="182" y="0" type="line"/>
			<point x="255" y="0" type="line"/>
		</contour>
	</outline>
</glyph>
<glyph name="lowline" format="2">
	<advance width="320"/>
	<unicode hex="E511"/>
	<note>
		lowline
  </note>
	<outline>
		<contour>
			<point x="48" y="64" type="line"/>
			<point x="48" y="0" type="line"/>
			<point x="272" y="0" type="line"/>
			<point x="272" y="64" type="line"/>
		</contour>
	</outline>
</glyph>
<glyph name="underscoremonospace" format="2">
	<advance width="600"/>
	<unicode hex="E512"/>
	<unicode hex="FF3F"/>
	<note>
		underscoremonospace
  </note>
	<outline>
		<contour>
			<point x="48" y="-71" type="line"/>
			<point x="48" y="-135" type="line"/>
			<point x="552" y="-135" type="line"/>
			<point x="552" y="-71" type="line"/>
		</contour>
	</outline>
</glyph>
<glyph name="minus.inf" format="2">
	<advance width="300"/>
	<unicode hex="E57C"/>
	<note>
		minus.inf
  </note>
	<outline>
		<contour>
			<point x="22" y="21" type="line"/>
			<point x="22" y="-32" type="line"/>
			<point x="278" y="-32" type="line"/>
			<point x="278" y="21" type="line"/>
		</contour>
	</outline>
</glyph>
<glyph name="period.T" format="2">
	<advance width="300"/>
	<unicode hex="F182"/>
	<note>
		period.T
  </note>
	<outline>
		<contour>
			<point x="195" y="0" type="line"/>
			<point x="195" y="90" type="line"/>
			<point x="105" y="90" type="line"/>
			<point x="105" y="0" type="line"/>
		</contour>
	</outline>
</glyph>
